<svg xmlns="http://www.w3.org/2000/svg" viewBox="0 0 512 512"><path d="M503.467 0H8.533A8.536 8.536 0 000 8.533v494.933C0 508.177 3.823 512 8.533 512h494.933a8.536 8.536 0 008.533-8.533V8.533C512 3.823 508.177 0 503.467 0zM179.2 366.933V256h153.6v110.933H179.2zM332.8 384v110.933H179.2V384h153.6zm0-256v110.933H179.2V128h153.6zm162.133 0v110.933H349.867V128h145.066zm-332.8 110.933H17.067V128h145.067v110.933zM17.067 256h145.067v110.933H17.067V256zm332.8 0h145.067v110.933H349.867V256zM494.933 17.067v93.867H17.067V17.067h477.866zM17.067 384h145.067v110.933H17.067V384zm332.8 110.933V384h145.067v110.933H349.867z"/><path fill="#afafaf" d="M17.067 256h145.067v110.933H17.067z"/><path fill="#7e939e" d="M128 256h34.133v110.933H128z"/><path fill="#afafaf" d="M17.067 128h145.067v110.933H17.067z"/><path fill="#7e939e" d="M128 128h34.133v110.933H128z"/><path fill="#afafaf" d="M349.867 128h145.067v110.933H349.867z"/><path fill="#7e939e" d="M460.8 128h34.133v110.933H460.8z"/><path fill="#afafaf" d="M349.867 384h145.067v110.933H349.867z"/><path fill="#7e939e" d="M460.8 384h34.133v110.933H460.8z"/><path fill="#c90006" d="M349.867 256h145.067v110.933H349.867z"/><path fill="#a60916" d="M460.8 256h34.133v110.933H460.8z"/><path fill="#c90006" d="M17.067 384h145.067v110.933H17.067z"/><path fill="#a60916" d="M128 384h34.133v110.933H128z"/><path fill="#40a33f" d="M17.067 17.067h477.867v93.867H17.067z"/><path fill="#2e7e2e" d="M460.8 17.067h34.133v93.867H460.8z"/><path fill="#afafaf" d="M179.2 128h153.6v110.933H179.2z"/><path fill="#7e939e" d="M298.667 128H332.8v110.933h-34.133z"/><path fill="#afafaf" d="M179.2 256h153.6v110.933H179.2z"/><path fill="#7e939e" d="M298.667 256H332.8v110.933h-34.133z"/><path fill="#afafaf" d="M179.2 384h153.6v110.933H179.2z"/><path fill="#7e939e" d="M298.667 384H332.8v110.933h-34.133z"/></svg>